Coordinates
version=1
nRows=14
nColumns=24
inDegrees=yes

Units are S.I. units (second, meters, Newtons, ...)
Angles are in degrees.

endheader
time	pelvis_tilt	pelvis_list	pelvis_rotation	pelvis_tx	pelvis_ty	pelvis_tz	hip_flexion_r	hip_adduction_r	hip_rotation_r	knee_angle_r	ankle_angle_r	subtalar_angle_r	mtp_angle_r	hip_flexion_l	hip_adduction_l	hip_rotation_l	knee_angle_l	ankle_angle_l	subtalar_angle_l	mtp_angle_l	lumbar_extension	lumbar_bending	lumbar_rotation
      1.03766667	      0.93197448	     -4.48903239	      7.13459241	      0.53057624	      1.03723118	      0.30234441	      4.19164872	     10.54770795	     -0.44504685	    -12.39128256	      4.76355670	    -12.89553642	      3.76498135	     12.24334642	     -7.11952666	     -2.72825812	    -54.37013983	      8.03025956	     -2.38059867	      0.33023989	      0.72455197	      1.01055715	     -1.37553236
      1.04183333	      0.87807935	     -4.37970687	      7.00609920	      0.53523840	      1.03749801	      0.30279193	      3.85575159	     10.46073093	     -0.45282876	    -12.22310862	      4.97662732	    -12.60190229	      2.22400496	     12.82511173	     -6.86734684	     -2.70956048	    -53.82097224	      8.22491851	     -2.43505525	      0.97877755	      0.73683890	      0.89798897	     -1.14003292
      1.04600000	      0.90655740	     -4.30224350	      6.87200565	      0.53992549	      1.03784304	      0.30329092	      3.39344864	     10.43115034	     -0.35879184	    -11.95715093	      5.02859221	    -12.48401285	      2.19870755	     13.30923910	     -6.68917904	     -2.73565649	    -53.24484911	      8.49871586	     -2.38695683	      0.99689831	      0.62812326	      0.81900325	     -1.10823054
      1.05016667	      0.93977669	     -4.20244459	      6.73396266	      0.54456717	      1.03816359	      0.30376144	      2.94401032	     10.37072153	     -0.28624264	    -11.73700581	      5.13952344	    -12.31527067	      2.15119980	     13.77043506	     -6.47472032	     -2.73600716	    -52.61849199	      8.72463097	     -2.34037154	      1.02316147	      0.48804342	      0.73681155	     -0.94820859
      1.05433333	      0.93037794	     -4.13021770	      6.60511691	      0.54924221	      1.03838196	      0.30422484	      2.53528640	     10.33434454	     -0.22997847	    -11.49538662	      5.23813800	    -12.15687817	      2.12096738	     14.27919310	     -6.29045161	     -2.73273072	    -51.97293103	      8.93002066	     -2.36367797	      1.04004351	      0.44592330	      0.65677991	     -0.83998811
      1.05850000	      0.93589012	     -4.03261901	      6.45877686	      0.55387603	      1.03860469	      0.30467738	      2.13176258	     10.26412732	     -0.19549071	    -11.31020621	      5.42215850	    -11.88146818	      2.02843631	     14.74571147	     -6.07183963	     -2.72015170	    -51.26764557	      9.06619629	     -2.41643492	      1.07752813	      0.35708736	      0.57662542	     -0.56598827
      1.06266667	      0.91775564	     -3.95461458	      6.31782171	      0.55852079	      1.03875185	      0.30512611	      1.74876701	     10.21488232	     -0.14025949	    -11.10603306	      5.56943801	    -11.68194495	      1.93834034	     15.23495869	     -5.87669799	     -2.70311912	    -50.54166518	      9.20120900	     -2.48035216	      1.10967663	      0.30816335	      0.50170173	     -0.42118234
      1.06683333	      0.86055642	     -3.87876580	      6.17583281	      0.56317131	      1.03879975	      0.30558110	      1.40500854	     10.16576494	     -0.06062171	    -10.89129890	      5.66866519	    -11.55703311	      1.91015795	     15.75931462	     -5.68435877	     -2.68715629	    -49.79267597	      9.35294431	     -2.53637041	      1.12023268	      0.30860594	      0.41823352	     -0.36291526
      1.07100000	      0.83451765	     -3.78339494	      6.01250169	      0.56779709	      1.03888905	      0.30603082	      1.04641146	     10.09287934	      0.01208053	    -10.72937192	      5.84062510	    -11.35924397	      1.84391118	     16.21877710	     -5.46736990	     -2.66242528	    -48.97838226	      9.40116892	     -2.68394366	      1.13493601	      0.25262211	      0.32529924	     -0.17291274
      1.07516667	      0.79155173	     -3.70289073	      5.85720987	      0.57243001	      1.03891007	      0.30647286	      0.70037826	     10.03470211	      0.08799399	    -10.54513852	      5.99210826	    -11.17950189	      1.78084507	     16.69415186	     -5.27099199	     -2.63357307	    -48.14776738	      9.45466054	     -2.81653025	      1.14573132	      0.23303569	      0.24492933	     -0.02948017
      1.07933333	      0.71735640	     -3.61714632	      5.69484445	      0.57706803	      1.03887022	      0.30692094	      0.39234675	      9.96718966	      0.17855846	    -10.37347939	      6.14756441	    -11.01490590	      1.71755135	     17.18651608	     -5.06650850	     -2.59793537	    -47.27859311	      9.46228555	     -2.97728679	      1.15139992	      0.24938927	      0.15536499	      0.10997848
      1.08350000	      0.66617343	     -3.52717801	      5.52746474	      0.58171066	      1.03883992	      0.30735789	      0.05995765	      9.89516141	      0.27329090	    -10.20533270	      6.31072040	    -10.84620773	      1.64936077	     17.63571890	     -4.86203337	     -2.56189018	    -46.37153424	      9.43430481	     -3.16949945	      1.15273260	      0.24015010	      0.06361321	      0.25889923
      1.08766667	      0.60036070	     -3.44531489	      5.35740614	      0.58634783	      1.03875517	      0.30779858	     -0.25219976	      9.83011717	      0.37688345	    -10.04263525	      6.47309170	    -10.68779639	      1.57669720	     18.09109637	     -4.66802057	     -2.51767647	    -45.43790369	      9.37891056	     -3.38077537	      1.14989687	      0.24858287	     -0.01991888	      0.40624162
      1.09183333	      0.52812757	     -3.36640261	      5.19135345	      0.59099663	      1.03863256	      0.30821462	     -0.55762364	      9.76469139	      0.47180544	     -9.87929035	      6.64643643	    -10.51033990	      1.46448065	     18.54079160	     -4.47424585	     -2.45303928	    -44.47414779	      9.27224025	     -3.64682181	      1.14137979	      0.27701627	     -0.09364989	      0.59277690
